<?xml version="1.0" encoding="UTF-8" standalone="no"?>
<!-- Created with Inkscape (http://www.inkscape.org/) -->

<svg
   version="1.1"
   id="svg1"
   width="1182"
   height="1182"
   viewBox="0 0 1182 1182"
   xmlns="http://www.w3.org/2000/svg"
   xmlns:svg="http://www.w3.org/2000/svg">
  <defs
     id="defs1" />
  <g
     id="g1">
    <path
       style="fill:#6186ea;stroke-width:0.999673"
       d="m 430.49995,1167.7808 -2.5,-0.7196 -15.6479,-0.6932 -15.6479,-0.6934 -12.8521,-1.4279 -12.8521,-1.428 -16.49996,-2.5142 -16.5,-2.5143 -9,-1.9728 -9,-1.9729 -8,-1.944 -8,-1.9441 -7.5,-2.0624 -7.5,-2.0624 -10.5,-1.0432 -10.5,-1.0432 -11.45715,-2.0735 -11.45715,-2.0737 -11.6847,-3.361 -11.6847,-3.361 -7.92611,-3.0546 -7.92611,-3.0547 -8.651,-4.4113 -8.651,-4.4114 -8.53134,-5.5574 -8.53134,-5.5574 -8.52575,-8.1797 -8.52576,-8.1798 -4.85569,-6.5827 -4.85568,-6.5829 -3.23441,-6.4474 -3.2344,-6.4473 -3.29958,-9.0426 -3.29957,-9.0425 -5.02246,-10.4931 -5.02245,-10.4931 -3.55016,-11.7619 -3.55016,-11.7619 -1.51166,-11.52416 L 111.5,978.76608 v -10.76805 -10.76806 l 1.07813,-10.91656 1.07814,-10.91645 2.5111,-11.99216 2.5111,-11.99219 3.45869,-10.33265 3.45868,-10.33265 4.56966,-10.4275 4.56967,-10.4275 6.63241,-11.54742 6.63241,-11.54742 10,-13.66235 10,-13.66237 7,-7.01821 7,-7.0182 11,-7.39799 11,-7.39799 11,-8.13629 11,-8.13629 4.59872,-4.60741 4.59871,-4.60741 1.26457,-3.05092 1.26456,-3.05094 -0.59155,-2.35539 -0.59155,-2.35539 -2.04635,-2.5998 -2.04634,-2.59981 -5.27132,-2.4921 -5.27131,-2.49209 -14.51374,-3.98983 -14.51374,-3.98984 -12.94033,-4.68729 -12.94033,-4.68728 -9.5,-4.27423 -9.5,-4.27422 -8.66842,-5.01149 -8.66842,-5.01149 -6.03857,-4.09803 -6.03856,-4.09803 -9.06205,-8.61808 -9.06205,-8.61808 -5.021712,-6.61391 -5.0217,-6.6139 -3.95003,-8.04872 -3.95004,-8.04871 -2.05849,-7.94083 -2.05848,-7.94082 -1.00052,-21.48594 -1.00052,-21.48595 0.6067,-5.4964 0.60671,-5.49641 1.94641,-7.26854 1.94641,-7.26854 5.40127,-10.71969 5.40127,-10.71969 8.247262,-12.9915 8.24726,-12.9915 5.83021,-9.42611 5.8302,-9.42611 3.19958,-8.06245 3.19958,-8.06245 0.0684,-10.49314 0.0684,-10.49313 -3.16587,-6.67811 -3.16586,-6.67812 -7.33413,-7.83809 -7.33413,-7.83807 -10.000002,-14.6966 -10,-14.69661 -4.77136,-7.76301 -4.77136,-7.76301 -5.84911,-11.49248 -5.84911,-11.49249 -2.59522,-7.99477 -2.59523,-7.99477 -1.53349,-7.49509 -1.53349,-7.4951 -8.1e-4,-5.7988 -8.2e-4,-5.7988 1.63053,-7.1927 1.63054,-7.1927 2.34727,-5.32076 2.34726,-5.32076 6.7722,-7.03569 6.7722,-7.03568 5.5,-3.74227 5.5,-3.74227 4.07139,-2.0686 4.07139,-2.06861 5.996342,-2.0187 5.99635,-2.0187 8.7959,-1.0923 8.7959,-1.09231 9.55965,1.06526 9.55965,1.06528 9.07671,3.03021 9.07671,3.03022 6.5,3.5428 6.5,3.54282 7.80563,5.59607 7.80562,5.59609 7.59693,7.54428 7.59692,7.54427 5.69037,7.61976 5.69037,7.61975 5.09802,9.91831 5.09802,9.91832 2.00668,7.23658 2.00667,7.23658 2.30238,4.16771 2.30239,4.16772 3.5,2.38268 3.5,2.38267 5.07212,-0.50459 5.07211,-0.50459 6.42789,-2.92869 6.42788,-2.92868 22.5,-14.96383 22.5,-14.96384 4.79838,-2.75509 4.79838,-2.75509 5.25724,-1.80757 5.25724,-1.80757 4.44438,-0.71023 4.44438,-0.71022 12.44279,-4.46351 12.44279,-4.4635 18.55718,-5.33343 18.5572,-5.33342 18.5,-4.60168 18.5,-4.60168 29.5,-7.02548 29.5,-7.02548 14,-3.91307 14,-3.91308 22.5,-4.98946 22.5,-4.98945 25,-5.09694 25,-5.09692 23,-3.88433 23,-3.88432 22,-2.20087 22,-2.20088 27,0.51582 27,0.51582 6,-0.92761 6,-0.9276 1.75,-0.52914 1.75,-0.52913 v 1.46919 1.46919 l -5.6501,3.74792 -5.6502,3.74792 -5.0998,1.93919 -5.0999,1.93918 -7.5,1.4931 -7.5,1.49309 -32.7697,-0.10272 -32.7698,-0.10272 -10.4146,1.5454 -10.4147,1.54542 -5.7965,1.993 -5.7966,1.993 -21.519,4.02724 -21.5191,4.02725 -25,5.38615 -25,5.38616 -17.5,4.10586 -17.5,4.10588 -20,4.9858 -20,4.9858 -17.5,4.58723 -17.5,4.58723 -21.5,5.77387 -21.5,5.77389 -18.5,5.16231 -18.49996,5.16231 -6,2.01051 -6,2.0105 -13,5.53426 -13,5.53425 -15.89235,7.94592 -15.89234,7.94593 -9.39735,5.42178 -9.39735,5.42177 -10.01097,6.24343 -10.01098,6.24342 -11.69933,8.3968 -11.69933,8.3968 -12.5,9.71546 -12.5,9.71546 -15,13.27985 -15,13.27985 -1.21456,2.08599 -1.21457,2.08599 -0.0354,2.59936 -0.0354,2.59936 -2.57576,4.89574 -2.57576,4.89573 -5.17424,5.34036 -5.17424,5.34036 -16.28757,14.05969 -16.28757,14.05969 -4.39297,5.84012 -4.39296,5.84012 -2.45604,5.23989 -2.45604,5.23989 -0.72545,3.49772 -0.72546,3.49771 -5.35188,9.57914 -5.35189,9.57913 -2.964072,8.90878 -2.96406,8.90876 -1.63486,7.49509 -1.63485,7.4951 -0.56929,14.62359 -0.56928,14.6236 1.2155,8.36137 1.2155,8.36137 3.39995,10.49313 3.399962,10.49314 4.62328,8.15086 4.62329,8.15084 6.49343,7.11003 6.49343,7.11004 6.14995,4.35679 6.14995,4.35679 5.25769,2.6385 5.25769,2.63852 9.24231,3.36761 9.24231,3.3676 24,10.19981 24,10.1998 7.5,3.02125 7.5,3.02126 10,3.40806 10,3.40806 7.5,1.92251 7.5,1.92251 9,1.58805 9,1.58805 12.54182,0.34857 12.54182,0.34859 12.70818,4.26077 12.70811,4.26078 v 0.82463 0.82463 l -2.52638,0.63367 -2.52638,0.63366 -1.06626,1.99103 -1.06626,1.99103 1.08992,1.0892 1.08992,1.08921 2.75272,-2.04627 2.75272,-2.04626 0.31955,-2.14828 0.31955,-2.14826 h 1.27897 1.27898 l 11.22644,2.48146 11.22644,2.48144 14.17503,2.08118 14.175,2.08118 21.4229,0.68865 21.4228,0.68865 10.0772,-0.85111 10.0771,-0.85113 13.5,0.0661 13.5,0.0661 13.9106,-0.98991 13.9105,-0.9899 14.5895,-2.00809 14.5894,-2.0081 15.5,-3.0515 15.5,-3.05151 16,-3.83012 16,-3.83012 19.5,-5.51759 19.5,-5.51759 32,-10.09529 32,-10.09531 12,-3.02187 12,-3.02187 14,-3.9954 14,-3.99541 12.5,-4.01527 12.5,-4.01527 16,-5.53131 16,-5.53131 19,-7.48127 19,-7.48129 17,-7.50545 17,-7.50546 23,-11.31967 23,-11.31968 18,-9.61912 18,-9.61913 8.5,-9.11719 8.5,-9.11719 10,-7.45731 10,-7.45732 5.00005,-2.33953 4.9999,-2.33953 2.75,-0.01 2.75,-0.01 v 2.11463 2.11465 l -3.4085,4.63094 -3.4084,4.63095 -7.34155,7.21088 -7.3415,7.21088 -9,7.18551 -9,7.18551 -12.5,8.16913 -12.5,8.16914 -9.8895,5.80635 -9.8895,5.80635 -15.6105,7.48467 -15.6105,7.48468 -15,6.23587 -15,6.23588 -15.5,5.7358 -15.5,5.73579 -20.5,7.30013 -20.5,7.30012 -13.5,4.97987 -13.5,4.97987 -19,7.48261 -19,7.48261 -15.5,5.03226 -15.5,5.03227 -21.5,6.53268 -21.5,6.53268 -13,3.54651 -13,3.54651 -24.803,6.02116 -24.8031,6.02115 -29.6969,5.39619 -29.697,5.39618 -16.5,2.00602 -16.5,2.00603 -7.5,0.54102 -7.5,0.54102 -17,1.15005 -17,1.15005 -34,-0.59171 -34,-0.59172 -13.08484,-1.02404 -13.08488,-1.02403 -4.41512,-1.57096 -4.41512,-1.57096 -11.5,-2.57417 -11.5,-2.57417 -13.5,0.0317 -13.5,0.0317 -10,1.70466 -10,1.70466 -11.59525,3.79329 -11.59525,3.79329 -10.29446,5.14218 -10.29446,5.14217 -10.61029,7.19823 -10.61029,7.19824 -13.08678,12.99374 -13.08678,12.99373 -7.6035,9.5338 -7.6035,9.5338 -5.47534,9.25975 -5.47533,9.25977 -4.10209,9.34729 -4.10209,9.3473 -1.98229,7.74563 -1.9823,7.74564 v 3.61517 3.61516 l 1.5567,2.22105 1.55671,2.22105 h 2.82117 2.82117 l 3.87213,-1.6049 3.87212,-1.60489 6.3906,-4.54194 6.39061,-4.54194 7.60939,-2.47875 7.6094,-2.47875 13.54217,-0.49 13.54216,-0.49001 8.88627,1.18177 8.88627,1.18178 9.57156,3.05601 9.57157,3.05601 5,2.51778 5,2.51779 5.5528,3.76245 5.55281,3.76245 5.72379,6.17836 5.72379,6.17836 2.38521,4.70392 2.38521,4.70382 1.72174,5.91873 1.72175,5.91873 -0.53219,9.65168 -0.53218,9.65169 -6.35137,10.19913 -6.35136,10.19912 -7.63389,10.18356 -7.6339,10.1836 -7.24906,6.834 -7.24906,6.8339 -6.04492,3.9044 -6.04491,3.9045 -6.42747,1.984 -6.42746,1.9839 h -5.33565 -5.33565 l -0.55961,-0.9049 -0.5596,-0.9048 6.64405,-3.1072 6.64405,-3.1071 6.11091,-4.3577 6.1109,-4.3579 6.99563,-7.3714 6.99564,-7.3716 3.80035,-5.74 3.80035,-5.73992 2.92676,-6.25061 2.92676,-6.25061 2.02289,-7.90473 2.02289,-7.90494 v -7.62491 -7.62501 l -1.552,-5.95621 -1.552,-5.9562 -2.58709,-4.41251 -2.58708,-4.41252 -4.11879,-4.08193 -4.11878,-4.08192 -5.09731,-2.7318 -5.0973,-2.7318 -6.39483,-1.67275 -6.39482,-1.67275 -10,-0.20239 -10,-0.2024 -8,-0.71534 -8,-0.71535 -8.5,1.53636 -8.5,1.53638 -8.41333,4.16504 -8.41332,4.1651 -7.64866,7.61562 -7.64865,7.61561 -4.21954,8.20794 -4.21954,8.20793 -2.05773,7.7816 -2.05774,7.78161 -0.0874,12.49183 -0.0874,12.49183 1.81624,6.49575 1.81624,6.4958 3.96689,8.4944 3.96689,8.4945 4.38524,10.9823 4.38524,10.9822 5.16375,8.505 5.16376,8.505 6.34897,8.1807 6.34896,8.1809 8.04193,7.292 8.04192,7.292 8.20366,5.8699 8.20367,5.8698 8,4.1099 8,4.11 8,3.3087 8,3.3087 9,2.4378 9,2.4379 8.88099,1.5294 8.88099,1.5294 h 7.61901 7.61901 l 10.04629,2.4323 10.04629,2.4325 23.95371,4.9812 23.95371,4.9811 16,2.5496 16.00001,2.5494 13.5,1.5529 13.5,1.5529 24.4787,1.1052 24.4787,1.1054 18.0213,-1.1872 18.0213,-1.1872 25,-3.4298 25,-3.4298 17,-2.9501 17,-2.9501 17.8666,-4.1386 17.8667,-4.1387 18.6333,-4.9596 18.6334,-4.9597 29.7482,-9.9269 29.7481,-9.9268 15.2519,-6.1593 15.2518,-6.1591 17.5,-7.9096 17.5,-7.9097 16,-8.3249 16,-8.3251 14.3925,-8.1878 14.3925,-8.1879 17.3956,-11.1621 17.3956,-11.1622 14.7827,-11.0282 14.7828,-11.02836 10.8309,-8.35573 10.8309,-8.35563 8.5982,-7.54257 8.5983,-7.54246 16.5,-16.08758 16.5,-16.08768 33.13425,-26.69568 33.1344,-26.69573 10.3755,-9.7382 10.3755,-9.73821 6.0484,-6.49575 6.0484,-6.49575 4.5725,-5.4964 4.5724,-5.49641 4.6546,-7.22489 4.6545,-7.2249 4.9561,-9.76398 4.9562,-9.764 0.01,-1.88468 0.01,-1.8847 -4.6332,0.63464 -4.6333,0.63465 -10.1167,4.05246 -10.1168,4.05246 -20.5897,11.4618 -20.5896,11.46179 -8.9104,3.92523 -8.9103,3.92522 -5.6692,1.47193 -5.6691,1.47193 -7.83085,0.67751 -7.8308,0.6775 -6,-1.09521 -6,-1.09522 -7.2047,-3.53614 -7.2047,-3.53616 -5.4674,-4.99368 -5.4675,-4.99367 -3.6113,-5.43722 -3.6114,-5.4372 -2.5284,-6.71295 -2.5284,-6.71294 -0.5717,-8.09527 -0.5716,-8.09528 1.7128,-8.44782 1.7129,-8.44782 2.9698,-7.00423 2.9698,-7.00424 4.1091,-6.99542 4.1091,-6.99543 7.0042,-9.36665 7.0043,-9.36664 16.4657,-16.92293 16.46575,-16.92292 -0.6344,-4.62524 -0.6344,-4.62525 -1.44195,-2.19922 -1.4419,-2.19922 -4.8019,-2.36275 -4.8047,-2.36021 -11.5,0.17237 -11.5,0.17236 -16.8858,2.63995 -16.8859,2.63994 -1.0916,-1.09096 -1.0917,-1.09096 0.9959,-1.57778 0.9959,-1.57779 9.1885,-5.76851 9.1885,-5.76853 6.7931,-1.36231 6.7931,-1.36231 13,0.10386 13,0.10386 9.5,1.75855 9.49995,1.75855 11.506,3.74573 11.506,3.74572 12.0767,6.04993 12.0767,6.04993 9.9173,5.71208 9.9173,5.7121 14.5,9.77471 14.5,9.77472 2.25,2.11678 2.25,2.11678 v 2.83674 2.83675 l -1.5296,1.26864 -1.5296,1.26863 -2.496,-1.1365 -2.496,-1.1365 -10.4081,-8.02947 -10.408,-8.02949 -5.6893,-2.60295 -5.6893,-2.60295 -5.7104,0.59647 -5.7104,0.59646 -5.4166,-2.06988 -5.4167,-2.06989 -7.0547,0.44098 -7.0548,0.44098 -6.055,3.22522 -6.0551,3.22521 -6.0517,5.88124 -6.0516,5.88123 -6.3385,1.64114 -6.33855,1.64113 -5.2699,2.57844 -5.2699,2.57842 -5.8599,5.71252 -5.86,5.71251 -5.15,8.35627 -5.1499,8.35627 -2.9463,9.18123 -2.9462,9.18123 -0.8993,9.80634 -0.8994,9.80636 0.8184,6.49575 0.8185,6.49575 1.5893,4.46431 1.5892,4.46432 2.4527,4.18247 2.4527,4.18248 4.175,3.06831 4.175,3.06832 4.9961,1.65834 4.996,1.65834 7.594,-0.55446 7.5939,-0.55445 10.99995,-2.65094 11,-2.65093 10.7403,-3.42725 10.7404,-3.42724 10.2458,-4.53977 10.2458,-4.53977 2.0138,-1.78459 2.0139,-1.78461 4.6897,-1.72525 4.6896,-1.72525 8.2267,-4.94118 8.2268,-4.94117 7.5836,-5.6753 7.5836,-5.67531 6.8061,-6.53087 6.8061,-6.53086 0.7218,1.16704 0.7217,1.16705 -0.6911,9.44452 -0.691,9.44453 -2.1438,10.84262 -2.1437,10.84263 -3.4659,10.49313 -3.4659,10.49314 -6.3946,12.9915 -6.3946,12.9915 -8.1109,12.33969 -8.1108,12.33967 -9.342,11.72078 -9.3419,11.72076 -13.3954,14.41438 -13.3953,14.41442 -5.4844,6.47266 -5.4844,6.47277 -6.5,6.8735 -6.5,6.87341 -8.9999,8.82552 -9.00005,8.82553 -14.2095,11.39564 -14.2094,11.39565 -17.2906,12.02342 -17.2905,12.0235 -22.5,13.4775 -22.5,13.4774 -7.9339,4.1494 -7.934,4.1494 -1.8227,-0.5781 -1.8227,-0.5781 -5.7434,1.1865 -5.7433,1.1865 -5.5,2.7803 -5.5,2.7802 -7.5,6.6622 -7.5,6.6623 -7.5,4.9635 -7.5,4.9636 -7.8016,2.4651 -7.8016,2.4651 h -2.9367 -2.9366 l -8.3704,3.4627 -8.3703,3.4626 -12.3914,4.6216 -12.3914,4.6217 -15,4.8555 -15,4.8556 -19.5,5.5898 -19.5,5.59 -50.1155,12.4121 -50.1155,12.4121 -9.3845,2.059 -9.3845,2.059 -21,3.4773 -21,3.4773 -20,1.9377 -20,1.9378 -23.5,0.4366 -23.5,0.4367 z m 396.2888,-96.9113 4.2112,-3.9362 -1.0912,-1.1017 -1.0913,-1.1018 -4.8033,1.79 -4.8033,1.7901 -1.0146,1.6131 -1.0146,1.613 0.6278,1.6349 0.6278,1.6348 h 2.0701 2.0701 z m 145.53,-104.52279 11.3187,-11.66997 1.1041,-2.42181 1.1042,-2.42172 -1.1397,-1.13895 -1.1397,-1.13896 -4.257,1.91555 -4.2569,1.91565 -4.5262,3.57626 -4.5263,3.57626 -4.2292,5.48331 -4.2293,5.48321 -1.5489,4.38713 -1.5488,4.38713 0.5101,1.32863 0.5102,1.32863 2.768,-1.46014 2.7679,-1.46015 z M 166.0709,443.5392 l 7.07091,-2.97391 5.92909,-3.86417 5.92909,-3.86417 10.07964,-10.04906 10.07965,-10.04905 5.14708,-7.91307 5.14708,-7.91308 3.18613,-7.57679 3.18613,-7.57679 0.45438,-5.16712 0.45438,-5.16711 -2.6097,-9.09194 -2.6097,-9.09193 -2.62586,-5.2282 -2.62586,-5.22821 -4.37921,-6.62644 -4.37921,-6.62645 -7.25247,-7.2605 -7.25246,-7.26051 -7.91436,-5.90775 -7.91436,-5.90777 -9.08564,-4.36336 -9.08564,-4.36337 -4.61431,-1.5172 -4.61432,-1.51719 -8.27285,-1.6752 -8.27286,-1.6752 -11.61282,0.43138 L 106,288.9464 l -8.594832,4.04649 -8.59484,4.04648 -4.14548,3.74274 -4.14548,3.74275 -3.25969,6.619 -3.25968,6.619 0.0968,11.01186 0.0967,11.01184 2.63753,8.70519 2.63753,8.70517 4.33208,9.83698 4.33207,9.83697 11.547,21.4317 11.547002,21.43169 2.04753,4.67262 2.04754,4.67261 4.27707,4.63704 4.27707,4.63705 2.95449,2.10241 2.95449,2.1024 5.60755,2.37136 5.60754,2.37135 9,-0.39399 9,-0.394 z m 310.01385,648.1489 -5.9153,-0.8623 -7.4798,-2.0506 -7.4797,-2.0508 -7.4453,-3.4377 -7.4452,-3.4376 -6.185,-4.4106 -6.1849,-4.4106 -6.797,-7.2005 -6.797,-7.2004 -4.5316,-6.1507 -4.5315,-6.1507 -4.8504,-9.9934 -4.8504,-9.9935 -2.4708,-7.4951 -2.4709,-7.495 -2.6959,-12.49185 -2.6958,-12.49183 -0.481,-13.49117 -0.481,-13.49118 1.6025,-11.99215 1.6025,-11.99216 2.4464,-9.7772 2.4463,-9.77721 3.1621,-8.71073 3.1621,-8.71071 4.8909,-9.38764 4.8909,-9.38763 v -1.78248 -1.78247 l 2.3976,-1.8847 2.3976,-1.8847 6.2008,-7.70301 6.2008,-7.70301 7.9482,-7.20709 7.9483,-7.20711 6.2033,-4.3863 6.2034,-4.3863 9,-4.31295 9,-4.31296 8.5947,-2.48279 8.5947,-2.4828 8.2837,-1.21045 8.2837,-1.21043 11.1216,0.57398 11.1216,0.574 6,1.62649 6,1.6265 8.1684,3.91838 8.1683,3.91839 5.2394,4.81442 5.2393,4.81443 -0.09,3.14696 -0.089,3.14695 -2.7861,4.79122 -2.7861,4.79122 -6.5701,6.74558 -6.5702,6.74559 -3.4619,0.0126 -3.4619,0.0125 -10,-4.99397 -10,-4.99396 -5.9601,-1.51433 -5.9602,-1.51432 h -5.0798 -5.0798 l -5.9601,1.53059 -5.9601,1.53059 -7,3.34977 -7,3.34978 -6.6181,5.52608 -6.6182,5.52606 -6.6422,8.83099 -6.6423,8.83097 -3.9403,7.99477 -3.9402,7.99477 -2.5112,7.55781 -2.5112,7.55784 -1.2609,7.43234 -1.2609,7.43243 0.048,16.48922 0.048,16.48921 1.663,8.49444 1.6629,8.49445 2.6048,7.96129 2.6049,7.96148 2.4408,4.8136 2.4408,4.8134 3.6134,5.6449 3.6134,5.645 4.1016,4.4468 4.1015,4.4467 5.5013,3.7292 5.5014,3.729 6.2397,3.1441 6.2397,3.1439 6.2603,1.4751 6.2603,1.475 h 7.5 7.5 l 6.2602,-1.475 6.2603,-1.4751 5.8755,-2.9639 5.8754,-2.964 4.5214,-3.0495 4.5214,-3.0494 4.8617,-5.316 4.8616,-5.3159 3.2001,-6 3.2,-5.9998 1.5312,-5.8748 1.5312,-5.8748 v -5.13736 -5.13734 l -1.0979,-3.14714 -1.0978,-3.14715 h -1.5089 -1.5088 l -9.1433,1.54449 -9.1434,1.54439 -13.5,2.42362 -13.5,2.42361 -2,0.14441 -2,0.1444 -1.7269,-0.11512 -1.727,-0.11503 -1.6046,-2.44749 -1.6047,-2.4474 -1.3903,-5.32062 -1.3903,-5.32062 -0.9463,-6.67733 -0.9462,-6.67734 0.5265,-2.01238 0.5266,-2.01228 4.1416,-2.39264 4.1416,-2.39253 5.8823,-2.17138 5.8822,-2.17138 14.6178,-3.42046 14.6177,-3.42047 12.5,-2.45909 12.5,-2.45909 11.2144,-1.63433 11.2144,-1.63433 2.1013,1.12386 2.1013,1.12377 1.7697,4.17697 1.7696,4.17696 1.599,6.49575 1.599,6.49576 3.1641,15.48986 3.1641,15.48987 5.8737,24.98358 5.8738,24.9836 2.5278,9.3545 2.5278,9.3544 v 2.9533 2.9532 l -1.0143,1.8941 -1.0143,1.894 -7.9754,2.5177 -7.9753,2.5179 -8.9771,1.1944 -8.9771,1.1944 -2.4851,-1.1315 -2.4852,-1.1316 -1.4063,-2.7915 -1.4064,-2.7916 -2.2394,-9.1864 -2.2395,-9.1865 -1.2078,-1.6508 -1.2079,-1.6508 -4.2676,5.528 -4.2677,5.528 -7.6768,7.3097 -7.6768,7.3097 -5.6959,3.7634 -5.6959,3.7633 -6.7043,3.006 -6.7044,3.0062 -7.5997,1.9997 -7.5998,1.9997 -9.7434,1.4724 -9.7434,1.4724 -6.7566,-0.1218 -6.7566,-0.1219 z m 3.9152,-11.5713 -4,-1.5435 -4.8252,-0.8361 -4.8253,-0.8362 -4.0428,-3.65 -4.0429,-3.6501 -2.0208,2.0195 -2.0209,2.0195 0.5118,1.3324 0.5117,1.3324 5.3772,1.7676 5.3772,1.7674 4,0.8803 4,0.8803 5,0.03 5,0.03 z m 33,0.722 2,-0.8218 -1.627,-0.6668 -1.6271,-0.6666 -4.7948,0.3096 -4.7947,0.3096 -0.4115,1.2491 -0.4115,1.2492 4.8333,-0.07 4.8333,-0.07 z m 27.1395,-10.7238 -0.5463,-0.5461 -2.5466,0.6388 -2.5466,0.6387 v 1.5056 1.5057 l 3.093,-1.5984 3.0929,-1.5984 z m -96.6395,-4.4496 v -3.1443 l -8.25,-7.8193 -8.25,-7.8193 -3.5,-1.1589 -3.5,-1.1587 -1.25,-0.9916 -1.25,-0.9914 v 1.0452 1.0451 l 3.6247,4.8235 3.6246,4.8234 2.6254,2.8831 2.6253,2.883 5.86,4.3623 5.8601,4.3621 h 0.8899 0.89 z m 163.9781,-1.3393 1.0295,-0.6358 -2.8981,-2.4371 -2.8982,-2.437 h -4.6056 -4.6057 v 2.2985 2.2984 l 1.25,1.2918 1.25,1.2918 5.2243,-0.5174 5.2243,-0.5174 z m 10.2497,-3.2614 1.5377,-1.7489 -1.7618,-8.4944 -1.7618,-8.4945 -1.2604,-4.497 -1.2604,-4.4971 -1.3154,2.9981 -1.3155,2.998 -0.045,1.5527 -0.045,1.5526 2.6149,5.2438 2.6148,5.2438 -0.6267,3.1315 -0.6267,3.1314 -1.6431,1.8144 -1.6431,1.8144 h 2.5 2.5 z m -74.162,-10.2785 1.9342,-1.0345 v -1.5105 -1.5105 l -2.4685,1.7955 -2.4686,1.7955 -0.031,0.7495 -0.032,0.7495 h 0.5658 0.5657 z m -85.0658,-4.8901 v -0.9278 l -7.2762,-7.3168 -7.2762,-7.3167 -3.1801,-3.9974 -3.18,-3.9974 -1.0284,1.499 -1.0284,1.4991 -0.015,1.7916 -0.015,1.7917 4.75,5.1052 4.75,5.1051 4.8398,3.8461 4.8398,3.8462 h 1.9101 1.9102 z m -41.5887,-10.0649 0.6617,-5.4964 -3.3835,-3.4977 -3.3835,-3.4977 -1.153,-2.1829 -1.153,-2.1828 v -2.9807 -2.9808 l -5.0688,-10.4186 -5.0688,-10.41869 -1.1941,-7.08256 -1.1942,-7.08257 -0.737,-0.73652 -0.7371,-0.73662 v 3.08388 3.08389 l 2.4658,12.32274 2.4658,12.32275 2.8996,8.5336 2.8996,8.5339 1.7774,3.4583 1.7774,3.4584 3.4146,5.3557 3.4147,5.3557 0.3174,-0.3589 0.3173,-0.359 z m 155.5162,-19.6221 2.0725,-2.633 -0.015,-3.1131 -0.015,-3.1131 -0.9303,-1.47 -0.9303,-1.4702 -0.5697,0.5694 -0.5696,0.5693 -1.4847,5.6964 -1.4847,5.6963 v 0.9506 0.9506 h 0.9274 0.9274 z m -141.9327,-5.1116 v -1.7489 l -1.7448,-2.6138 -1.7447,-2.6138 -2.9808,-4.38174 -2.9807,-4.38153 -0.3518,2.34786 -0.3519,2.34791 1.6512,5.1472 1.6511,5.1472 1.6226,1.2492 1.6226,1.2492 h 1.8086 1.8088 z m 174.5223,-13.97552 -0.71,-4.73141 -2.3395,-9.50928 -2.3396,-9.50918 -1.1349,-5.74624 -1.1349,-5.74624 h -0.8617 -0.8617 l -0.6573,2.06965 -0.6573,2.06974 0.6767,6.17486 0.6768,6.17496 1.5281,6.89849 1.5281,6.89849 1.4895,3.59465 1.4894,3.59464 1.0181,1.24919 1.018,1.2492 h 0.9911 0.9911 z m -84.4325,-14.77274 4.5846,-0.66007 1.407,-0.86903 1.4071,-0.86913 -0.9916,-0.90501 -0.9917,-0.90511 -4.9867,-1.20921 -4.9867,-1.20911 -1.2633,-1.04781 -1.2633,-1.04771 v -3.30294 -3.30294 l 3.25,-2.66416 3.25,-2.66426 -3.6692,0.51716 -3.6692,0.51717 -2.7069,1.77254 -2.707,1.77244 0.6014,6.43589 0.6014,6.43579 1.6056,2.44879 1.6055,2.4488 2.1692,-0.51596 2.1692,-0.51606 z m 52.6438,-6.19625 -0.5023,-4.45378 -1.1137,-1.11297 -1.1137,-1.11288 -3.3203,1.19982 -3.3204,1.19991 h -4.024 -4.024 l -1.8853,2.08184 -1.8853,2.08194 7.0913,-0.69834 7.0913,-0.69835 2.7503,3.60345 2.7502,3.60344 1.0042,-0.6202 1.0041,-0.62019 z m -166.2284,-12.27467 v -1.33252 l -1.25,-0.41633 -1.25,-0.41643 v 2.16528 2.16519 l 1.25,-0.41633 1.25,-0.41643 z m 16.538,-31.81019 1.1335,-7.3261 -0.4677,-0.4674 -0.4678,-0.46749 -2.4925,0.62519 -2.4925,0.62519 -1.1233,2.46359 -1.1232,2.46369 1.4978,8.58318 1.4977,8.58319 v 6.28319 6.28309 l 0.7467,1.8306 0.7467,1.8306 0.7056,-11.99215 0.7056,-11.99216 z m 117.6477,24.30191 3.6214,-1.51212 -0.4306,-0.43031 -0.4307,-0.43042 -4.4729,1.00044 -4.4729,1.00055 -0.95,0.94198 -0.95,0.94209 h 2.2322 2.2321 z m 18.8143,-4.48387 0.6181,-0.99935 h -1.5 -1.5 l -0.6181,0.99935 -0.618,0.99934 h 1.5 1.5 z m 33.5013,-3.99509 -1.1253,-2.10122 -5.1094,0.3 -5.1094,0.2999 -0.4336,1.31414 -0.4336,1.31414 3.453,-0.64737 3.453,-0.64738 2.902,2.51016 2.902,2.51006 0.3133,-1.3757 0.3132,-1.3756 z m -184.0075,-21.46026 1.0742,-4.79029 -0.5209,-0.5205 -0.5208,-0.52051 -1.5131,3.61905 -1.5132,3.61903 0.03,3.27996 0.03,3.28005 0.9294,-1.58826 0.9293,-1.58826 z m 20.0506,-18.24906 2.2904,-5.76327 3.3326,-6.72064 3.3326,-6.72064 v -0.52462 -0.52462 h -1.0218 -1.0218 l -3.9453,6.10019 -3.9453,6.10019 -2.0629,5.50995 -2.0629,5.50996 0.602,1.89554 0.602,1.89554 0.805,-0.49716 0.8049,-0.49716 z m -3.1139,-32.14835 2.0695,-2.9045 v -1.09491 -1.09492 h -1.0141 -1.0141 l -2.9565,3.24788 -2.9566,3.24787 -0.029,1.78402 -0.029,1.78402 1.9304,-1.03247 1.9305,-1.03248 z m 108.2076,-26.33043 -0.7974,-2.24853 -3.5876,-1.79167 -3.5876,-1.79167 -8.5828,-0.60529 -8.5827,-0.6053 v 1.03123 1.03122 l 2.25,0.60258 2.25,0.60259 2,0.0428 2,0.0428 7,2.90738 7,2.90737 1.7178,0.0616 1.7178,0.0616 z m -53.5792,-0.27922 1.9411,-1.5284 -2.4216,0.27922 -2.4217,0.27921 -0.4117,1.24919 -0.4116,1.24918 h 0.8922 0.8922 z m 74.5398,-5.20484 0.7896,-2.13324 -2.0324,-2.58215 -2.0325,-2.58215 -3.1617,-1.60021 -3.1617,-1.60023 2.7876,2.96321 2.7875,2.96321 0.5994,3.69136 0.5994,3.69137 1.0176,-0.33896 1.0175,-0.33896 z m 131.639,203.66298 -7.7071,-3.9389 -4.7653,-3.2065 -4.7653,-3.2064 -2.25,-2.023 -2.25,-2.023 v -2.1804 -2.1806 l 5.8528,-14.884 5.8527,-14.88399 4.5957,-11.99215 4.5958,-11.99216 5.9779,-14.99019 5.978,-14.99019 7.1575,-17.39292 7.1576,-17.39298 -0.834,-1.66356 -0.834,-1.66355 -25,-24.10809 -25,-24.10809 -23,-23.65463 -23,-23.65464 -0.796,-1.37959 -0.796,-1.3796 2.7797,-4.74009 2.7797,-4.74009 5.7825,-5.68972 5.7825,-5.68971 6.0387,-3.01556 6.0386,-3.01556 1.6952,0.6086 1.6951,0.60861 6.3358,5.49487 6.3358,5.49487 35.3996,34.31765 35.3996,34.31767 h 0.9795 0.9794 l 1.0234,-1.91107 1.0235,-1.91108 11.5645,-26.82012 11.5646,-26.82013 6.369,-16.48922 6.3691,-16.48921 4.5393,-10.92626 4.5393,-10.92627 1.9742,-1.97286 1.9741,-1.97286 6.2166,2.26518 6.2165,2.26517 11.3511,5.33008 11.351,5.33007 1.0139,2.66493 1.0139,2.66493 -0.9318,3.13862 -0.9318,3.13862 -12.6724,30.48006 -12.6724,30.48006 -9.3493,23.24028 -9.3493,23.24029 -3.3133,10.11559 -3.3134,10.11559 13.5,12.74929 13.5,12.74927 33,30.87021 33,30.8701 0.3242,2.25842 0.3242,2.25833 -2.4847,4.21174 -2.4848,4.21174 -4.4589,4.6284 -4.459,4.6284 -4.6405,2.7176 -4.6404,2.7176 -4.24,1.2692 -4.2401,1.2692 -2.3179,-0.8632 -2.3179,-0.8632 -24.6323,-23.24183 -24.6323,-23.2419 -11.4464,-10.78804 -11.4464,-10.78804 -1.4247,0.29491 -1.4247,0.2949 -6.9737,14.9902 -6.9736,14.99019 -2.599,7.4951 -2.5989,7.49509 -10.5478,24.98362 -10.5477,24.9836 -3.6907,3.7476 -3.6907,3.7475 h -3.3953 -3.3952 z m 14.2394,-10.0092 1.0229,-1.9101 v -1.5486 -1.5485 l -3.3944,1.6177 -3.3945,1.6176 -2.6409,-0.6624 -2.6409,-0.6624 -0.9558,-2.2206 -0.9557,-2.2206 -2.1487,-2.674 -2.1486,-2.6738 0.071,-2.8226 0.071,-2.8224 0.9012,-4.9968 0.9013,-4.9966 1.8367,-3.9974 1.8367,-3.9974 1.1741,-4.99672 1.1742,-4.99674 0.7862,-2.99803 0.7862,-2.99804 -1.0544,0.99934 -1.0545,0.99935 -7.189,18.48794 -7.189,18.4878 -0.5033,2.2542 -0.5033,2.2544 1.3676,1.6587 1.3677,1.6587 5.3237,3.4101 5.3237,3.41 3.6763,1.2956 3.6763,1.2955 1.7271,-0.8966 1.7271,-0.8965 z m 12.9174,-29.3721 6.0296,-15.14156 1.6043,-4.49706 1.6042,-4.49706 0.6071,-1.99869 0.6072,-1.99869 -1.6735,1.3715 -1.6734,1.3716 v 2.2987 2.29869 l -5.3419,4.56082 -5.3419,4.56072 -2.2628,7.75853 -2.2628,7.7585 -0.8313,5.831 -0.8314,5.8311 0.5969,1.5544 0.5969,1.5544 1.2715,-1.7378 1.2716,-1.7378 z m 121.1532,-2.674 3.968,-2.023 4.4921,-4.30148 4.4922,-4.30149 v -1.76125 -1.76114 l -8.4706,-8.59948 -8.4707,-8.59947 -0.6494,0.64907 -0.6495,0.64898 0.6825,2.71732 0.6824,2.71732 3.968,3.62473 3.968,3.62473 0.56,3.44845 0.56,3.44844 -2.1629,2.7479 -2.1629,2.74787 h -3.7348 -3.7347 l -6.6927,-3.36506 -6.6927,-3.3651 v 0.38554 0.38555 l 6.4815,6.47727 6.4815,6.4773 h 1.5584 1.5583 z m -107.0828,-32.8885 1.0351,-1.93304 v -1.79183 -1.79182 l -2.6232,2.62158 -2.6233,2.62159 0.6823,1.10327 0.6823,1.10328 h 0.9058 0.9058 z m 97.0765,-2.98645 -1.029,-1.92144 -3.2444,-2.53744 -3.2444,-2.53744 -0.7946,0.79408 -0.7945,0.79398 0.6546,1.70468 0.6545,1.70479 3.6282,1.91594 3.6282,1.91595 0.7852,0.044 0.7852,0.044 z m -89.662,-14.34362 2.531,-6.7199 h -0.9907 -0.9907 l -2.0532,4.74689 -2.0531,4.7469 -0.4767,3.49771 -0.4767,3.49771 0.9895,-1.5247 0.9896,-1.5247 z m 40.6206,-2.17198 v -3.44694 l -3.2511,-2.47808 -3.2511,-2.47808 -4.7489,-2.03427 -4.7489,-2.03437 v 0.75341 0.75331 l 6.581,7.20588 6.581,7.20599 h 1.419 1.419 z m 17,-1.96781 v -0.41802 l -0.607,-1.58067 -0.6069,-1.58077 h -1.3931 -1.393 v 1.33243 1.33243 l 0.6667,0.66626 0.6667,0.66627 h 1.3333 1.3333 z m -77.8767,-16.07128 2.8154,-5.99608 2.46,-4.34956 2.46,-4.34958 -0.5552,-1.44575 -0.5551,-1.44575 -1.5498,0.2989 -1.5499,0.29889 -1.9756,4.99677 -1.9757,4.99673 -2.8487,6.66324 -2.8487,6.66324 v 1.20402 1.20411 l 1.6539,-1.3716 1.6539,-1.37151 z m 70.6343,-2.19557 -2.697,-2.69523 -0.5964,0.59601 -0.5964,0.59611 2.2547,2.09912 2.2547,2.09923 h 1.0387 1.0387 z m -26.7576,-8.79724 v -1.49902 h -1.6224 -1.6225 l 1.2449,1.49902 1.2449,1.49902 h 0.3776 0.3775 z m -9,-8.49449 v -0.99934 h -2.559 -2.559 l 0.618,0.99934 0.6181,0.99935 h 1.941 1.9409 z m -22,-26.82746 v -0.84445 l -1.75,-1.50191 -1.75,-1.5019 -1.4045,-0.80608 -1.4045,-0.80609 0.8066,1.40359 0.8066,1.40359 1.5029,1.74886 1.5029,1.74885 h 0.845 0.845 z m -23.0424,-4.72059 -2.2706,-3.67148 -4.5214,-2.86554 -4.5215,-2.86554 -0.5563,0.55594 -0.5563,0.55595 6.7648,6.56419 6.7649,6.56421 0.5835,-0.58312 0.5835,-0.58312 z m 59.4706,-6.31546 2.6286,-7.38346 -0.5042,-0.50388 -0.5042,-0.50389 -1.4924,1.23773 -1.4923,1.23773 -2.5975,4.64431 -2.5974,4.6443 0.6376,3.39668 0.6376,3.39667 1.3278,-1.39137 1.3277,-1.39137 z m -73.4282,-7.08403 v -1.97565 l -2.456,-1.6082 -2.456,-1.60819 -1.126,0.69543 -1.126,0.69544 2.7691,2.88841 2.7691,2.88842 h 0.8129 0.8129 z m 53.2857,0.0688 4.4514,-1.90686 0.5873,-5.3384 0.5872,-5.33838 0.9892,-8.37155 0.9893,-8.37154 1.994,-2.12159 1.994,-2.12159 1.0047,-4.46997 1.0048,-4.46996 -0.4294,-0.42911 -0.4294,-0.4291 -2.5516,5.89841 -2.5517,5.89842 -1.9353,3.64811 -1.9354,3.64812 -5.0274,12.22241 -5.0274,12.22244 v 0.86852 0.86853 h 0.9171 0.9171 z m -46.7795,-21.7184 1.6697,-0.64031 -8.3159,-8.35377 -8.3158,-8.35381 h -0.7721 -0.7721 v 1.7946 1.7946 l 6.6549,7.19951 6.6549,7.19952 h 0.7633 0.7634 z m -42.5062,-13.31573 v -1.96392 l -2.8613,-3.28264 -2.8613,-3.28266 -1.6325,-3.18622 -1.6324,-3.18624 -4.1573,-3.30951 -4.1573,-3.30953 -2.8489,-2.67133 -2.849,-2.67132 v -3.00354 -3.00352 l 1.5715,-1.57041 1.5714,-1.5704 h 2.4509 2.4509 l 4.4357,4.086 4.4357,4.08601 3.042,-0.6677 3.0419,-0.66769 v -0.81364 -0.81364 l -5.75,-5.59025 -5.75,-5.59025 -2.5041,-0.0125 -2.5041,-0.0125 -4.6221,3.74755 -4.6221,3.74755 -2.2806,3.28851 -2.2805,3.2885 3.3868,3.70692 3.3867,3.70692 11.0037,11.24264 11.0037,11.24265 h 0.7663 0.7663 z m 114.6304,-3.66166 1.2212,-2.99093 -0.8684,-1.40413 -0.8683,-1.40412 -0.9239,2.4645 -0.9239,2.46451 -0.7385,2.36676 -0.7384,2.36677 1.3094,-0.43621 1.3095,-0.43622 z m -101.6304,-13.68748 v -1.32481 l -2.496,-2.3434 -2.4961,-2.34338 -0.4061,0.42033 -0.4062,0.42034 -0.2129,1.99869 -0.213,1.99869 0.1152,1.24918 0.1151,1.24919 h 3 3 z m 96.9694,-8.16896 v -0.99935 l -0.9694,1.49902 -0.9693,1.49902 v 0.99935 0.99934 l 0.9693,-1.49902 0.9694,-1.49902 z m 9.6536,-20.31052 3.3938,-7.31902 -0.87,-1.55359 -0.87,-1.55359 -0.6434,1.04033 -0.6434,1.04034 -3.495,9.04379 -3.495,9.04377 0.032,0.78719 0.032,0.78718 1.5828,-1.99869 1.5827,-1.99869 z m 32.398,-21.63681 -1.1371,-1.36916 -2.9419,-1.02489 -2.942,-1.0249 v 0.64994 0.64996 l 3.2051,3.30464 3.2051,3.30466 0.8739,-1.56055 0.8739,-1.56055 z m -23.4283,0.37215 1.9026,-2.10101 2.7027,-1.39671 2.7027,-1.3967 h 2.0497 2.0496 v -0.84758 -0.84756 l -3.9462,-1.77834 -3.9462,-1.77834 -1.5989,0.61317 -1.599,0.61316 -1.335,3.26193 -1.3351,3.26192 -0.6872,2.24853 -0.6871,2.24853 h 0.9124 0.9124 z m 335.78455,-29.51129 -0.6609,-2.63124 0.8918,-5.53908 0.8918,-5.53908 1.0777,-0.35 1.0777,-0.34999 1.1723,2.57127 1.1723,2.57126 v 3.38563 3.38563 l -0.9752,2.56343 -0.9753,2.56342 h -1.5057 -1.5057 z m -155.21715,-64.56471 -1.1601,-1.15932 v -0.79948 -0.79948 h 2 2 v 1.44004 1.44005 l -0.8399,0.51875 -0.8399,0.51876 z m -379.1601,-17.15209 -8.5,-1.31354 -8,-2.18524 -8,-2.18524 -9.053,-4.37813 -9.053,-4.37812 -7.1388,-7.5104 -7.1388,-7.5104 -2.0582,-6.65919 -2.0582,-6.65919 v -4.18184 -4.18182 l 1.5284,-5.86406 1.5284,-5.86407 3.6401,-6.92262 3.6402,-6.92263 6.5814,-6.52006 6.5815,-6.52005 7,-4.74812 7,-4.74813 6,-3.01333 6,-3.01334 9.8567,-3.6781 9.8567,-3.6781 13.3084,-3.40864 13.3083,-3.40864 19.2716,-3.5305 19.2717,-3.5305 h 6.1032 6.1032 l 5.9601,1.52945 5.9601,1.52945 5.1246,2.48009 5.1245,2.48009 4.479,4.78529 4.479,4.78528 2.1428,5.72327 2.1427,5.72325 0.5809,8.21705 0.5809,8.21703 -2.0629,7.84904 -2.0629,7.84906 -4.3625,9.13983 -4.3624,9.13984 -4.7279,6.23432 -4.7279,6.23432 -7.1298,6.50304 -7.1299,6.50304 -7.5519,3.92635 -7.5519,3.92636 -4.9922,1.23896 -4.9922,1.23897 -7.6627,3.89323 -7.6628,3.89323 -9.3372,1.92408 -9.3373,1.92407 -9,0.46977 -9,0.46978 z m 27.0992,-13.59915 5.4008,-1.01606 8,-2.53386 8,-2.53386 9,-4.53379 9,-4.53378 8.5,-5.62806 8.5,-5.62806 7.1986,-7.17747 7.1986,-7.17748 3.3786,-5.34632 3.3787,-5.34632 1.7777,-4.49706 1.7777,-4.49706 0.057,-7.15348 0.057,-7.15348 -2.6456,-5.4038 -2.6455,-5.40381 -3.7667,-4.03746 -3.7668,-4.03744 -5.7126,-2.115 -5.7126,-2.11499 -12.7874,-1.03076 -12.7874,-1.03076 -3.0584,0.87808 -3.0584,0.87808 -2.9416,1.52588 -2.9416,1.52588 -8.5654,8.95354 -8.5654,8.95354 -3.6195,1.19377 -3.6195,1.19376 -3.8682,-1.04091 -3.8681,-1.04091 -4.235,-3.62258 -4.2349,-3.62258 -5.3651,0.66988 -5.365,0.66988 -7.0992,3.39995 -7.0991,3.39995 -4.9567,4.63334 -4.9566,4.63333 -3.1466,4.90027 -3.1465,4.90026 -1.8946,6.08326 -1.8946,6.08325 0.01,9.15491 0.01,9.15493 0.9762,3.51142 0.9762,3.51142 3.2683,5.44805 3.2682,5.44805 5,3.77683 5,3.77683 4,1.50311 4,1.50311 17.0992,-0.49568 17.0992,-0.4957 z m -34.0992,-86.93185 v -0.9994 h -1 -1 v 0.99935 0.99934 h 1 1 z m 448.62715,-5.79032 -0.5909,-0.95554 1.5966,-4.68258 1.5965,-4.68258 13.4154,-20.00807 13.4153,-20.00808 3.9688,-7.8884 3.9688,-7.8884 2.6637,-7.76942 2.6638,-7.76941 0.049,-10.99281 0.049,-10.9928 -2.3362,-5.88819 -2.3361,-5.88819 -7.7789,-11.60037 -7.7788,-11.60037 -8.3462,-9.06257 -8.3461,-9.06256 -8,-7.51787 -8,-7.51786 -9.767,-8.11309 -9.76705,-8.11309 -29.2329,-22.01839 -29.233,-22.01837 -3.0473,-2.47779 -3.0473,-2.47779 -12.9322,-3.542 -12.9322,-3.54201 -4.0205,-0.0715 -4.0205,-0.0716 -3,-1.30545 -3,-1.30545 -14.8885,-3.17636 -14.8885,-3.17635 -8.6115,-2.48461 -8.6115,-2.48463 -8.2076,-3.33409 -8.2077,-3.33408 -7.0004,-4.65082 -7.0004,-4.65082 -4.1751,-4.698 -4.1751,-4.69799 -3.3669,-6.96724 -3.3677,-6.96729 v -1.55468 -1.55469 l 1.5661,-2.23443 1.5661,-2.23444 3.8941,-1.98531 3.8941,-1.98531 h 7.4345 7.4345 l 6.3553,1.96908 6.3553,1.96909 3.8042,3.14501 3.8042,3.14502 -0.3042,2.03595 -0.3042,2.03596 -4,1.40073 -4,1.40073 -6.6353,-0.64594 -6.6354,-0.64594 -0.695,1.12385 -0.6951,1.12385 4.8304,4.4713 4.8304,4.4713 9.5,4.90201 9.5,4.90199 12.2478,4.04681 12.2477,4.0468 13.1598,2.56429 13.1599,2.56428 12.5924,1.40005 12.5924,1.40006 12,0.65641 12,0.6564 2.1905,1.39588 2.1905,1.39587 2.1751,5.96171 2.1752,5.96172 1.8661,1.68767 1.866,1.68766 4.7683,-0.62853 4.7683,-0.62852 8.218,-4.0394 8.2179,-4.0394 8.509,-8.04921 8.50895,-8.04922 5.3418,-7.15828 5.3418,-7.15829 3.637,-6.05393 3.6369,-6.05392 3.455,-8.06688 3.4551,-8.06689 2.5892,-10.26115 2.5893,-10.26115 -0.012,-12.09418 -0.012,-12.09418 -1.4291,-5.36553 -1.429,-5.36552 -2.7402,-5.62728 -2.7403,-5.62728 -6.232,-6.2517 -6.2321,-6.25169 -5.3368,-2.48283 -5.3367,-2.48281 -5.5,-0.002 -5.50005,-0.002 -8.7225,0.99878 -8.7226,0.99878 -8.2679,2.61011 -8.2678,2.61012 -8.2512,3.80954 -8.2511,3.80954 -8.7446,5.69629 -8.7446,5.69628 -10.0687,10.11187 -10.0688,10.11189 -6.0202,9.04818 -6.0202,9.04817 -3.0963,7.44104 -3.0962,7.44103 -0.6005,2.49837 -0.6004,2.49836 2.0433,3.30733 2.0433,3.30733 7.2675,3.44904 7.2674,3.44904 17.9201,4.57256 17.9202,4.57256 3.6676,1.86984 3.6676,1.86985 0.6233,1.62331 0.6233,1.62332 v 1.61245 1.61243 l -2.6871,2.80289 -2.6867,2.80375 h -1.6885 -1.6885 l -5.469,-2.41704 -5.4689,-2.41705 -20.4055,-6.09128 -20.4055,-6.09127 -8.1185,-3.96682 -8.1186,-3.96682 -3.5749,-3.95445 -3.575,-3.95444 -0.6752,-3.59724 -0.6753,-3.59724 1.2816,-4.57468 1.2817,-4.57469 4.3988,-5.8479 4.3989,-5.84791 4.3503,-3.82682 4.3504,-3.82682 5.6352,-7.44647 5.6353,-7.44647 7.0363,-7.76227 7.0363,-7.76227 9.6663,-8.30229 9.6664,-8.30229 6.5,-4.51128 6.5,-4.51127 6.1943,-3.69681 6.1942,-3.69679 10.4031,-4.35566 10.4031,-4.35566 8.87,-2.22071 8.8701,-2.22069 5.7624,0.52218 5.76245,0.52217 7.2701,3.60029 7.2702,3.60028 5.6909,4.52518 5.6909,4.52518 4.7049,6.21182 4.705,6.21181 3.2825,7.14364 3.2826,7.14363 2.183,6.84722 2.1829,6.84721 0.5222,12.76429 0.5222,12.7643 -1.2181,7.54572 -1.218,7.54574 -2.3467,6.89495 -2.3466,6.89496 -3.5735,6.79581 -3.5734,6.7958 -5.8173,5.97307 -5.8174,5.97306 -6.9444,6.49575 -6.9444,6.49575 -3.624,6.99542 -3.6239,6.99543 -1.1096,5.29575 -1.1097,5.29576 v 3.23856 3.23856 l 1.5446,5.9562 1.5445,5.95621 4.1183,6.99542 4.1184,6.99542 22.6692,22.62888 22.6693,22.62887 3.8816,5.84413 3.8817,5.84414 2.3131,5.72284 2.313,5.72283 2.9647,11.27442 2.9646,11.2744 1.5929,10.49314 1.5928,10.49313 0.102,12.49183 0.1019,12.49183 -1.2873,7.99477 -1.2874,7.99477 -2.4048,7.62553 -2.4047,7.62554 -4.8186,7.36465 -4.8186,7.36466 -5.8918,5.37041 -5.8919,5.37042 -3.5338,2.21658 -3.5338,2.21658 -6.5,2.58104 -6.5,2.58105 -2.6409,0.65591 -2.6409,0.6559 z m 11.408,-170.63664 1.28,-1.54137 -1.0904,-1.08969 -1.0904,-1.0897 -1.5672,0.60101 -1.5672,0.601 v 2.03007 2.03005 h 1.3776 1.3775 z m -26.0352,-22.89176 v -1.44816 l -3.3444,-2.54922 -3.3442,-2.54922 h -1.1557 -1.1556 v 0.92266 0.92268 l 2.5889,3.07471 2.5888,3.07472 h 1.9111 1.9111 z m -21.99995,-17.45768 v -0.91762 l -0.607,-1.58074 -0.6069,-1.58076 h -1.3931 -1.393 v 1.29915 1.29915 l 1.2,1.19922 1.2,1.19921 h 0.8 0.8 z m -9.4309,-9.18758 0.6872,-1.11108 -1.3781,-0.87231 -1.3782,-0.87231 h -1 -1 l -1.3781,0.87231 -1.3781,0.87231 0.6871,1.11108 0.6872,1.11108 h 2.3819 2.382 z m -658.06906,217.01691 -3,-0.74772 -3.72884,-1.58852 -3.72883,-1.58853 -4.89164,-4.57257 -4.89164,-4.57257 -2.82857,-6.23023 -2.82856,-6.23024 -0.41176,-9.60665 -0.41176,-9.60666 1.6995,-5.88321 1.69951,-5.88321 3.08558,-5.81179 3.08558,-5.81178 5.41638,-5.41284 5.41639,-5.41285 6.15933,-2.9719 6.15933,-2.97189 7,-1.40008 7,-1.40008 7,-4.50101 7,-4.501 7.5,-4.05833 7.49996,-4.05833 9.2796,-3.59588 9.2796,-3.59589 7.0358,-1.47905 7.0358,-1.47905 h 3.3731 3.373 l 7.8783,5.93255 7.8782,5.93256 3.6632,4.6988 3.6632,4.6988 2.1213,5.60802 2.1213,5.60802 -0.6003,6.66058 -0.6002,6.66058 -1.9861,4.63024 -1.986,4.63024 -2.8918,4.19905 -2.8918,4.19904 -8.0303,8.15429 -8.0303,8.15429 -13.3428,8.82622 -13.3428,8.82622 -12.9773,6.34946 -12.97736,6.34946 -8.67016,2.90287 -8.67015,2.90287 -7.85249,-0.10229 -7.8525,-0.1023 z m 28.5958,-16.57004 4.34726,-1.5328 2.37579,-2.21475 2.37579,-2.21475 1.86547,-3.63486 1.86548,-3.63485 0.98281,-6.35861 0.98281,-6.3586 0.6327,-12.9915 0.6327,-12.9915 0.98021,-4.49706 0.98022,-4.49706 3.10322,-4.83637 3.1031,-4.83636 3.6972,-2.3324 3.6972,-2.3324 4.1411,-1.11436 4.1411,-1.11436 v -1.4605 -1.4605 h -1.7568 -1.7569 l -8.4931,3.34592 -8.4932,3.34592 -8.24075,4.1557 -8.2408,4.1557 -5.7592,3.64513 -5.75921,3.64511 -8.07282,6.2578 -8.07282,6.2578 -5.23102,5.71983 -5.23103,5.71984 -2.32294,4.60748 -2.32295,4.60748 -0.67991,3.14436 -0.67992,3.14435 1.60443,3.83743 1.60444,3.83744 2.20227,2.35942 2.20227,2.35942 4,2.06936 4,2.06936 5.5,1.77703 5.5,1.77703 5.12427,0.0538 5.12428,0.0538 z m 31.86436,-36.89407 1.2051,-1.45106 -0.6681,-2.10349 -0.668,-2.10348 -1.6531,0.31814 -1.6531,0.31815 -0.3461,1.79576 -0.346,1.79575 0.5532,1.44064 0.5532,1.44065 h 0.9089 0.9089 z m 40.7334,-11.55261 1.1936,-3.48554 0.056,-7.77704 0.056,-7.77703 -1.4858,-3.55362 -1.4858,-3.55364 -1.2642,0.41433 -1.2642,0.41433 -1.3373,3.92091 -1.3372,3.92091 -0.1628,7.4951 -0.1627,7.49509 1.3904,3.29412 1.3905,3.29411 1.6095,-0.30825 1.6096,-0.30824 z m -47.6936,-32.96626 v -0.99934 h -1 -1 v 0.99934 0.99935 h 1 1 z m -251.0075,76.44091 -1.3077,-1.57465 1.0904,-1.08968 1.09041,-1.0897 1.64112,0.62935 1.64112,0.62935 -0.3239,1.66906 -0.32391,1.66907 -1.09991,0.36593 -1.09992,0.36593 z m 629.4724,-41.52059 -0.6532,-1.05614 0.6481,-2.58038 0.6481,-2.58038 -4.304,0.63313 -4.3039,0.63313 -11,0.62321 -11,0.6232 -9.1109,-1.59314 -9.1109,-1.59314 -4.7063,-2.016 -4.7062,-2.01601 -5.835,-5.56206 -5.8351,-5.56206 -2.0169,-4.68798 -2.0168,-4.68799 -1.1299,-8.25394 -1.1299,-8.25394 1.0297,-5.56621 1.0296,-5.5662 2.7435,-5.16743 2.7435,-5.16743 8.5258,-8.61389 8.5258,-8.61388 7,-4.50089 7,-4.50088 7.2885,-3.65622 7.2885,-3.65622 8.7115,-2.90036 8.7115,-2.90037 8.3578,-1.67708 8.3577,-1.67708 5.6423,0.4253 5.6422,0.4253 3.6727,1.76291 3.6726,1.7629 0.6113,1.59177 0.6112,1.59177 -1.1241,0.69429 -1.1241,0.69428 -6.9062,0.64144 -6.9061,0.64144 -4.0074,1.60237 -4.0073,1.60238 -2.4963,2.96472 -2.4963,2.96471 v 2.95346 2.95347 l 1.3884,3.32064 1.3884,3.32065 5.7403,6.76229 5.7404,6.76228 0.1345,10.12173 0.1344,10.12173 2.2089,4.15275 2.2089,4.15277 2.5904,2.03625 2.5904,2.03627 3.5626,1.175 3.5626,1.175 8.1249,-0.44724 8.1249,-0.44724 7.5,-3.51775 7.5,-3.51774 6.1988,-4.69447 6.1988,-4.69446 3.5434,-4.82388 3.5434,-4.82388 1.9858,-4.37383 1.9859,-4.37382 0.012,-4.99673 0.012,-4.99673 -2.335,-4.99673 -2.3351,-4.99674 -2.6161,-3.09594 -2.6162,-3.09595 -11.789,-8.80573 -11.789,-8.80573 -2.75,-2.52598 -2.75,-2.52597 v -1.78869 -1.78868 l 2.3942,-1.56773 2.3942,-1.56774 3.3558,-0.53381 3.3558,-0.5338 8.4433,4.23594 8.4433,4.23594 6.665,6.66061 6.665,6.6606 3.7466,7.5758 3.7466,7.57578 1.0964,7.6059 1.0965,7.60589 -1.1968,8.20581 -1.1968,8.20582 -2.7536,5.43889 -2.7536,5.43887 -5.6382,5.63445 -5.6381,5.63445 -6.5191,3.20725 -6.5191,3.20725 -6.8437,1.52883 -6.8437,1.52884 -2.5,0.85447 -2.5,0.85448 -8.5,3.52614 -8.5,3.52615 -10.5,3.07592 -10.5,3.07591 -4.3466,1.05607 -4.3466,1.05608 1.6763,1.85105 1.6763,1.85106 -1.1149,2.08182 -1.1149,2.08183 h -1.9058 -1.9058 z m -31.0363,-23.49922 1.5714,-1.5704 v -1.46745 -1.46745 l -2.1255,-4.20741 -2.1256,-4.20741 -3.2217,-4.49706 -3.2218,-4.49705 -2.7631,-5.15747 -2.7631,-5.15747 -3.3872,-3.28088 -3.3872,-3.28089 -2.7117,0.95302 -2.7117,0.95303 -2.9816,4.23957 -2.9817,4.23957 0.073,4.81572 0.073,4.81571 1.5686,3.03127 1.5685,3.03128 5.5567,5.07515 5.5567,5.07515 5.243,2.01386 5.243,2.01387 3.1786,0.0521 3.1786,0.0521 z m 36.3714,-24.61247 1.2,-1.19921 v -2.79817 -2.79817 h -0.9409 -0.941 l -0.4415,0.74951 -0.4414,0.74951 -0.697,3.24787 -0.6971,3.24788 h 0.8795 0.8794 z m -27.2678,-32.22788 3.4678,-1.44804 v -1.05033 -1.05034 h -1.4442 -1.4442 l -2.8058,2.46678 -2.8058,2.46679 0.7822,0.0316 0.7821,0.0316 z m -525.53216,29.42966 v -0.99934 h 1 1 v 0.99934 0.99935 h -1 -1 z m 589.24996,-43.50549 -2.25,-1.57842 v -1.82547 -1.82548 l 1.9353,-0.50575 1.9354,-0.50577 2.1215,1.48504 2.1216,1.48505 -0.3069,2.14183 -0.3069,2.14183 -1.5,0.28278 -1.5,0.28278 z m -105.2201,-161.473 -2.4701,-0.98517 -3.3847,-2.57994 -3.3847,-2.57994 -4.5965,-7.11452 -4.5966,-7.11451 -21.1523,-20.98627 -21.1523,-20.98627 -5.61,-7.53583 -5.61,-7.53582 -2.0995,-4.74321 -2.0995,-4.74322 -0.056,-4.06201 -0.056,-4.06202 1.9027,-2.54682 1.9027,-2.5468 2.1654,-1.43681 2.1653,-1.43681 5.178,4.83481 5.178,4.8348 10.524,13.49118 10.524,13.49117 7.3887,8.56568 7.3888,8.56566 4.4911,3.75166 4.4911,3.75165 4.2194,2.411 4.2193,2.41099 5.6,0.012 5.6,0.012 4.0628,-2.9412 4.0629,-2.9412 3.1548,-4.58231 3.1547,-4.58231 2.525,-5.71782 2.525,-5.71783 3.6049,-4.99673 3.605,-4.99673 13.938,-19.48725 13.9381,-19.48726 11.5319,-14.99019 11.5319,-14.990191 8.5825,-9.993462 8.5825,-9.993463 11.5,-11.860151 11.5,-11.860141 11,-9.253007 11,-9.253006 8.2887,-5.61936 8.2886,-5.619287 h 4.7614 4.7613 l 1.2,1.199216 1.2,1.199215 v 1.345591 1.345591 l -21.75,21.786484 -21.75,21.786477 -19.5563,20.389461 -19.5563,20.389453 -8.479,9.59778 -8.4789,9.59779 -10.005,12.38783 -10.0049,12.38783 -3.6821,5.09293 -3.6821,5.09292 -3.9518,8.39825 -3.9519,8.39825 -7.7947,18.4879 -7.7947,18.48791 -5.0466,7.4951 -5.0466,7.49509 -4.4464,2.24853 -4.4464,2.24853 -1.5382,-0.0634 -1.5381,-0.0634 z m 154.3152,-179.313233 -0.5921,-1.542112 0.557,-0.556645 0.557,-0.556646 1.0665,0.658719 1.0665,0.658729 v 1.440038 1.440038 h -1.0313 -1.0314 z"
       id="path21" />
  </g>
</svg>
